<?xml version="1.0" encoding="UTF-8"?>
<svg width="68px" height="59px" viewBox="0 0 68 59" version="1.1" xmlns="http://www.w3.org/2000/svg" xmlns:xlink="http://www.w3.org/1999/xlink">
    <!-- Generator: Sketch 61 (89581) - https://sketch.com -->
    <title>cal</title>
    <desc>Created with Sketch.</desc>
    <g id="00.Brand-Assets" stroke="none" stroke-width="1" fill="none" fill-rule="evenodd">
        <g id="Icons-nav-release" transform="translate(-245.000000, -460.000000)">
            <g id="cal" transform="translate(244.833276, 461.304224)">
                <g>
                    <path d="M15.3058842,24.5 L10.3556888,25.8154047 L8.51560095,30.0407465 L9.20896032,34.1957758 L12.8031986,37.7510807 L8.16396632,39.6999262 L4.77048376,42.3183344 C3.30515173,45.2366287 2.57248571,46.6957758 2.57248571,46.6957758 C2.57248571,46.6957758 2.38165714,48.2140863 2,51.2507074 L3.49216345,54 L10.7653568,56.3706323 L19.4963138,56.0480707 L25.0033939,54.5280512 L27.2619388,53.2409418 L61.0378177,53.5971336 L64.944556,51.2507074 L67.1032459,46.1789301 L66.8193392,9.86799941 L64.944556,6.51608829 L60.4087974,4.84613246 L22.3887996,4.84720069 L18.0627201,6.51608829 L16,9.86799941 L16,24.5 L15.3058842,24.5 Z" id="Path-2" fill="#FFFFFF"></path>
                    <path d="M67.1032459,16.9473394 L66.818397,11.3560793 C66.879197,7.77527954 63.9895971,4.84167971 60.4087974,4.84720069 L22.3887996,4.91047971 C18.8791998,4.91527971 16.028,7.74807954 16,11.2592793 L16.38896,16.575839 L67.1032459,16.9473394 Z" id="fill" fill="#3D54FF"></path>
                    <path d="M33.5938578,53.5954075 C38.8949323,53.5963518 47.303073,53.5969086 58.8182798,53.597078 C63.2365575,53.5971425 66.818332,50.0154735 66.818397,45.5971958 C66.818397,45.5971565 66.818397,45.5971173 66.818397,45.597078 L66.818397,11.3560793 L66.818397,11.3560793 C66.879197,7.77527954 63.9895971,4.84167971 60.4087974,4.84613246 L22.3887996,4.84981782 C18.8791998,4.85461782 16.028,7.74807954 16,11.2592793 L16.0032,18.4779282" id="Path" stroke="#0F1031" stroke-width="2.25" stroke-linecap="round" stroke-linejoin="round"></path>
                    <line x1="28.1632" y1="0" x2="28.1632" y2="9.86799941" id="Stroke-15" stroke="#0F1031" stroke-width="2.25" stroke-linecap="round" stroke-linejoin="round"></line>
                    <line x1="55.2687184" y1="0" x2="55.2687184" y2="9.86799941" id="Stroke-17" stroke="#0F1031" stroke-width="2.25" stroke-linecap="round" stroke-linejoin="round"></line>
                    <text id="31" font-family="Helvetica" font-size="21" font-weight="normal" letter-spacing="0.4" fill="#0F1031">
                        <tspan x="30.166724" y="41.6957758">31</tspan>
                    </text>
                    <g id="Group-3" transform="translate(0.794986, 24.042901)" fill="#FFFFFF" fill-rule="nonzero" stroke="#0F1031" stroke-linecap="round" stroke-linejoin="round" stroke-width="2.25">
                        <circle id="Oval" cx="13.9519863" cy="6.84939458" r="6.5830056"></circle>
                        <path d="M27.1179975,26.8741909 C27.1179975,19.6028037 21.2233735,13.7081797 13.9519863,13.7081797 C6.68059911,13.7081797 0.785975112,19.6028037 0.785975112,26.8741909 C0.785975112,34.1455781 27.1179975,34.1455781 27.1179975,26.8741909 Z" id="Oval"></path>
                    </g>
                </g>
            </g>
        </g>
    </g>
</svg>