<?xml version="1.0" encoding="UTF-8"?>
<svg width="85px" height="54px" viewBox="0 0 85 54" version="1.1" xmlns="http://www.w3.org/2000/svg" xmlns:xlink="http://www.w3.org/1999/xlink">
    <!-- Generator: Sketch 61 (89581) - https://sketch.com -->
    <title>ticket</title>
    <desc>Created with Sketch.</desc>
    <g id="00.Brand-Assets" stroke="none" stroke-width="1" fill="none" fill-rule="evenodd">
        <g id="Icons-nav-release" transform="translate(-403.000000, -467.000000)">
            <g id="ticket" transform="translate(404.000000, 467.804224)">
                <path d="M14.9000024,0.549999982 L14.9000024,17.8475537 L11.0874023,19.0146234 L8.39819336,22.864477 L8.39819336,27.4489496 L14.0180664,32.2165277 L8.39819336,33.5324457 L4.33496094,36.8586176 L1.75048828,42.4701898 L0.90000236,46.4574945 L3.47167969,49.3722895 L12.9597168,52 L22.6730957,50.777807 L28.0898438,48.2802484 L28.7421051,45.1235102 L28.7421051,43.7500017 L81.9000024,43.7500017 L82,30.2760981 L78.1589355,29.1921137 L74.8630371,27.0453852 L72.6500024,23.3842523 C73.2785164,20.9669346 73.5927734,19.6343337 73.5927734,19.3864496 C73.5927734,19.1385655 74.409668,18.0041254 76.043457,15.9831293 L78.5930176,14.7450922 L82,14.0646723 L82,0.519531369 L14.9000024,0.549999982 Z" id="Path-5" fill="#FFFFFF"></path>
                <path d="M63.4000024,0.549999982 L81.9000024,0.549999982 L81.9000024,14.3513397 C76.776579,14.3513397 72.7100634,17.8429192 72.7100634,22.1500008 C72.7100634,26.3742539 76.6183705,29.8140688 81.6055191,29.9448072 L81.9000024,29.948 L81.9000024,43.7500017 L63.4000024,43.7500017 L63.4000024,0.549999982 Z" id="fill" fill="#3D54FF" fill-rule="nonzero"></path>
                <polygon id="Star" stroke="#3D54FF" fill="#3D54FF" fill-rule="nonzero" stroke-linecap="round" stroke-linejoin="round" points="43.25 27.6202063 37.2252012 32.0853251 39.6100163 24.9756034 33.5016707 20.6254768 41.0003663 20.6965459 43.25 13.542901 45.4996337 20.6965459 52.9983293 20.6254768 46.8899837 24.9756034 49.2747988 32.0853251"></polygon>
                <path d="M35.9000024,0.5 L81.9000024,0.5 L81.9000024,14.3013397 C76.9796594,14.3013397 72.9909334,17.7929193 72.9909334,22.1000009 C72.9909334,26.4070825 76.9796594,29.898662 81.9000024,29.898662 L81.9000024,43.7000017 L34.5584481,43.7000017 M14.9000024,11.542901 C14.9000024,8.76512318 14.9000024,6.07508692 14.9000024,0.519531369 L35.9000024,0.519531369" id="Shape" stroke="#0F1031" stroke-width="2.25" stroke-linecap="round" stroke-linejoin="round" fill-rule="nonzero"></path>
                <g id="Group-3" transform="translate(0.900002, 17.542901)" fill="#FFFFFF" fill-rule="nonzero" stroke="#0F1031" stroke-linecap="round" stroke-linejoin="round" stroke-width="2.25">
                    <circle id="Oval" cx="13.9210514" cy="7.26517848" r="6.9605257"></circle>
                    <path d="M27.8421028,28.2153837 C27.8421028,20.5269994 21.6094358,14.2943323 13.9210514,14.2943323 C6.23266701,14.2943323 -1.13686838e-13,20.5269994 -1.13686838e-13,28.2153837 C-1.13686838e-13,35.9037681 27.8421028,35.9037681 27.8421028,28.2153837 Z" id="Oval"></path>
                </g>
            </g>
        </g>
    </g>
</svg>