<?xml version="1.0" encoding="UTF-8"?>
<svg width="63px" height="69px" viewBox="0 0 63 69" version="1.1" xmlns="http://www.w3.org/2000/svg" xmlns:xlink="http://www.w3.org/1999/xlink">
    <!-- Generator: Sketch 61 (89581) - https://sketch.com -->
    <title>EA</title>
    <desc>Created with Sketch.</desc>
    <g id="00.Brand-Assets" stroke="none" stroke-width="1" fill="none" fill-rule="evenodd">
        <g id="Icons-nav-release" transform="translate(-90.000000, -456.000000)">
            <g id="EA" transform="translate(119.881518, 490.804224) rotate(-87.000000) translate(-119.881518, -490.804224) translate(83.881518, 458.304224)">
                <circle id="Oval" fill="#FFFFFF" cx="22.4441894" cy="54.6366546" r="3.5"></circle>
                <circle id="Oval" fill="#FFFFFF" cx="55.7769145" cy="60.1212919" r="3.5"></circle>
                <circle id="Oval" fill="#FFFFFF" cx="65.4986295" cy="24.447664" r="3.5"></circle>
                <circle id="Oval" fill="#FFFFFF" cx="37.0082039" cy="7.7101218" r="3.5"></circle>
                <circle id="Oval" fill="#FFFFFF" cx="6.85256004" cy="24.6331595" r="3.5"></circle>
                <path d="M19.2948119,55.9548613 C20.0814543,57.7203181 22.149037,58.514398 23.9152438,57.7283005 C25.6807007,56.9416581 26.4747806,54.8740754 25.6886831,53.1078686 C24.9027906,51.3429566 22.834458,50.5483318 21.0682512,51.3344293 C19.3033391,52.1203218 18.5087144,54.1886544 19.2948119,55.9548613 Z M24.6009193,51.6019348 L27.9062885,47.0011698" id="Combined-Shape" stroke="#0F1031" stroke-width="2.25" stroke-linecap="round" stroke-linejoin="round"></path>
                <path d="M49.2408627,32.9832054 C49.2408627,39.6098721 43.8684183,44.9832054 37.2408627,44.9832054 C30.6133072,44.9832054 25.2408627,39.6098721 25.2408627,32.9832054 C25.2408627,26.3556499 30.6133072,20.9832054 37.2408627,20.9832054 C43.8684183,20.9832054 49.2408627,26.3556499 49.2408627,32.9832054 Z" id="Stroke-16" stroke="#0F1031" stroke-width="2.25" fill="#3D54FF"></path>
                <path d="M6.55889587,31.111651 C7.34553828,32.8771079 9.41312096,33.6711878 11.1793278,32.8850902 C12.9447846,32.0984478 13.7388646,30.0308651 12.952767,28.2646583 C12.1668745,26.4997463 10.0985419,25.7051215 8.3323351,26.4912191 C6.56742308,27.2771116 5.77279831,29.3454442 6.55889587,31.111651 Z M11.8650032,26.7587245 L18.5212753,17.2945441" id="Combined-Shape" stroke="#0F1031" stroke-width="2.25" stroke-linecap="round" stroke-linejoin="round" transform="translate(11.946796, 25.084126) rotate(72.000000) translate(-11.946796, -25.084126) "></path>
                <path d="M34.1146349,12.6613592 C34.9012773,14.426816 36.96886,15.220896 38.7350668,14.4347984 C40.5005237,13.648156 41.2946036,11.5805733 40.508506,9.8143665 C39.7226135,8.04945449 37.6542809,7.25482972 35.8880741,8.04092727 C34.1231621,8.82681975 33.3285373,10.8951524 34.1146349,12.6613592 Z M39.4207422,8.30843268 L42.635961,3.98117991" id="Combined-Shape" stroke="#0F1031" stroke-width="2.25" stroke-linecap="round" stroke-linejoin="round" transform="translate(37.814478, 9.369110) rotate(144.000000) translate(-37.814478, -9.369110) "></path>
                <path d="M56.0643877,30.6308058 C56.8510301,32.3962627 58.9186128,33.1903426 60.6848196,32.404245 C62.4502765,31.6176026 63.2443564,29.5500199 62.4582588,27.7838131 C61.6723664,26.0189011 59.6040338,25.2242763 57.8378269,26.0103739 C56.0729149,26.7962664 55.2782902,28.864599 56.0643877,30.6308058 Z M61.3704951,26.2778793 L66.7314378,18.4639244" id="Combined-Shape" stroke="#0F1031" stroke-width="2.25" stroke-linecap="round" stroke-linejoin="round" transform="translate(61.041562, 25.515039) scale(-1, 1) rotate(72.000000) translate(-61.041562, -25.515039) "></path>
                <path d="M48.1631636,61.4254145 C48.949806,63.1908713 51.0173887,63.9849513 52.7835955,63.1988537 C54.5490524,62.4122113 55.3431323,60.3446286 54.5570347,58.5784218 C53.7711422,56.8135098 51.7028096,56.018885 49.9366028,56.8049826 C48.1716908,57.590875 47.377066,59.6592077 48.1631636,61.4254145 Z M53.4692709,57.072488 L60.6659563,46.3037974" id="Combined-Shape" stroke="#0F1031" stroke-width="2.25" stroke-linecap="round" stroke-linejoin="round" transform="translate(53.756427, 54.942010) scale(-1, 1) translate(-53.756427, -54.942010) "></path>
            </g>
        </g>
    </g>
</svg>