<?xml version="1.0" encoding="UTF-8"?>
<svg width="81px" height="67px" viewBox="0 0 81 67" version="1.1" xmlns="http://www.w3.org/2000/svg" xmlns:xlink="http://www.w3.org/1999/xlink">
    <!-- Generator: Sketch 61 (89581) - https://sketch.com -->
    <title>eb icon</title>
    <desc>Created with Sketch.</desc>
    <g id="00.Brand-Assets" stroke="none" stroke-width="1" fill="none" fill-rule="evenodd">
        <g id="Icons-nav-release" transform="translate(-79.000000, -614.000000)">
            <g id="eb-icon" transform="translate(120.052529, 648.063572) rotate(-20.000000) translate(-120.052529, -648.063572) translate(72.552529, 604.563572)">
                <polygon id="Path-7" fill="#FFFFFF" transform="translate(47.431504, 43.146732) rotate(20.000000) translate(-47.431504, -43.146732) " points="8.56416545 34.3524967 13.6409999 47.1848188 18.8451015 47.1848188 23.5731288 51.3185624 23.5731288 58.2734673 18.8451015 62.4892877 23.3394362 74.9017682 86.2988418 51.9864186 81.5785056 39.0174014 76.0262538 39.0174014 71.7396567 34.6400502 71.7396567 28.2402086 76.2439072 24.3607129 71.7396567 11.3916957"></polygon>
                <path d="M64.5,21.55 L82,21.55 L82,35.3513397 L82,35.3513397 C77.1371659,35.3513397 73.19506,38.8429192 73.19506,43.1500008 C73.19506,47.3742539 76.9870044,50.8140688 81.7204949,50.9448072 L82,50.948 L82,64.7500017 L64.5,64.7500017 L64.5,21.55 Z" id="Path" fill="#3D54FF" fill-rule="nonzero"></path>
                <path d="M64.4644235,21.5 L80.9000024,21.5 L80.9000024,35.3013397 C76.5929208,35.3013397 73.1013413,38.7929193 73.1013413,43.1000009 C73.1013413,47.4070825 76.5929208,50.898662 80.9000024,50.898662 L80.9000024,64.7000017 L30.6226067,64.7000017 M22.8745598,64.7000017 L13.9000024,64.7000017 L13.9000024,50.898662 C18.207084,50.898662 21.6986635,47.4070825 21.6986635,43.1000009 C21.6986635,38.7929193 18.207084,35.3013397 13.9000024,35.3013397 L13.9000024,21.5 L56.6733259,21.5" id="Shape" stroke="#0F1031" stroke-width="2.25" stroke-linecap="round" stroke-linejoin="round" fill-rule="nonzero"></path>
                <path d="M47.5337808,38.3828852 C47.5199273,38.3553502 47.5186679,38.3465891 47.5136302,38.3403311 C47.4959985,38.3190541 47.4771074,38.297777 47.4569568,38.2777516 C45.832319,36.6431745 43.8689001,35.9210068 41.5679596,36.1137518 C40.9458115,36.165067 40.3450733,36.3215158 39.7619668,36.5417957 C37.1071323,37.5543323 35.3149931,40.0287266 35.1914496,42.8510629 C35.1903116,42.8811011 35.1991274,42.9111393 35.2054245,42.9536933 C39.3199142,41.4292562 43.4218099,39.9073223 47.5337808,38.3828852 M55.266553,41.1101007 C49.1861256,43.364215 43.1132546,45.6158261 37.0214925,47.8749468 C37.0592748,47.9200041 37.0832036,47.9525454 37.1134294,47.9838352 C37.853962,48.7660792 38.7317701,49.3518235 39.7405569,49.7410681 C40.5314658,50.0477078 41.3551194,50.2054082 42.2039612,50.2191757 C42.7455071,50.2279368 43.2845343,50.1828795 43.8122267,50.0589721 C45.9481847,49.5558327 47.5501531,48.354306 48.5992409,46.4343663 C48.6634708,46.3167168 48.6622114,46.3154652 48.8045246,46.3292327 C50.7943911,46.5157196 52.785517,46.7022066 54.7766429,46.8911968 C54.8030905,46.8936999 54.8307975,46.9012095 54.8698392,46.908719 C54.8559857,46.9587827 54.844651,47.0038399 54.8307975,47.0476456 C53.6570281,50.7798882 50.8800309,53.7724408 47.2239661,55.2455627 C46.6521944,55.4746038 46.0665691,55.6635939 45.4670904,55.8125332 C44.9154691,55.947705 44.3588103,56.0553417 43.7920762,56.1166697 C43.3676553,56.1629785 42.941975,56.1917651 42.5137759,56.198023 C41.5024703,56.2155453 40.5037588,56.1166697 39.5163821,55.9013961 C37.6461594,55.4946292 35.9409194,54.7236495 34.4107373,53.5796959 C32.4712472,52.127851 31.0468554,50.2805036 30.131265,48.0464147 C29.8756049,47.4218711 29.6715806,46.7810568 29.5154139,46.1252234 C29.3781383,45.5432339 29.2761262,44.9537348 29.223231,44.3579778 C29.0267631,42.1827137 29.3378372,40.0787902 30.2068295,38.0724908 C31.6135896,34.82962 33.9598688,32.510423 37.2242574,31.1123965 C37.7796568,30.8758459 38.352688,30.6881074 38.9383132,30.5341617 C39.5856496,30.3639454 40.2418017,30.2300253 40.9092886,30.1674457 C44.3059151,29.845787 47.3939864,30.6730883 50.1420172,32.6831425 C52.2553057,34.2301082 53.7414086,36.2551815 54.6444049,38.7007891 C54.8710986,39.3090621 55.0486753,39.9336057 55.170838,40.5731684 C55.1998044,40.7145981 55.2249925,40.8572794 55.2514401,40.9987091 C55.2577372,41.0325021 55.260256,41.0687982 55.266553,41.1101007" id="Fill-1" fill="#3D54FF"></path>
            </g>
        </g>
    </g>
</svg>