<?xml version="1.0" encoding="UTF-8"?>
<svg width="153px" height="163px" viewBox="0 0 153 163" version="1.1" xmlns="http://www.w3.org/2000/svg" xmlns:xlink="http://www.w3.org/1999/xlink">
    <!-- Generator: Sketch 61 (89581) - https://sketch.com -->
    <title>EC icon</title>
    <desc>Created with Sketch.</desc>
    <g id="00.Brand-Assets" stroke="none" stroke-width="1" fill="none" fill-rule="evenodd">
        <g id="Artboard" transform="translate(-777.000000, -431.000000)">
            <g id="EC-icon" transform="translate(846.671010, 516.469846) rotate(-20.000000) translate(-846.671010, -516.469846) translate(766.171010, 450.969846)">
                <polygon id="Path-2" fill="#FFFFFF" points="96.0729166 13.0928069 52.2358294 14.4045326 43.4777421 18.9676643 40.2307272 26.0276773 39.5875275 60.6296376 40.0263656 129.489587 60.6118934 130.092807 88.6288262 130.004211 103.482535 129.963875 110.937492 129.13559 130.937881 123.124639 143.331493 114.607389 152.428041 100.889614 155.849826 91.5078896 159.502806 78.1435938 159.587528 46.8610511 159.098491 23.0768524 150.57884 14.0654028 126.049145 13.4953966"></polygon>
                <path d="M160.911221,41.7617281 L160.225474,28.3012872 C160.371844,19.6808433 153.4154,12.6184733 144.794956,12.6317646 L53.2653323,12.7841029 C44.8162958,12.7956585 37.9522962,19.6153618 37.8848888,28.0682502 L38.8212739,40.8673753 L160.911221,41.7617281 Z" id="fill" fill="#3D54FF"></path>
                <path d="M102.954218,129.884244 C134.215846,129.83417 159.516733,104.448542 159.466659,73.1869142 L160.225474,28.3012872 C160.371844,19.6808433 153.4154,12.6184733 144.794956,12.6318781 L53.2653323,12.7841029 C44.8162958,12.7956585 37.9522962,19.6153618 37.8848888,28.0682502 L37.0934092,127.561562 C37.0828326,128.891094 38.1520575,129.977467 39.4815898,129.988044 C39.4892869,129.988105 39.4969842,129.988129 39.5046815,129.988117 C52.4964047,129.966848 65.4881278,129.94558 78.4798509,129.924311" id="Path" stroke="#0F1031" stroke-width="5.41666667" stroke-linecap="round" stroke-linejoin="round"></path>
                <path d="M79.295953,129.796614 C102.202915,125.894689 118.821728,95.2512832 121.864691,96.5512831 C139.781579,104.21069 153.709402,99.9067818 156.89681,90.1750787" id="Stroke-3" stroke="#0F1031" stroke-width="5.41666667" stroke-linecap="round" stroke-linejoin="round"></path>
                <path d="M124.36179,64.8149452 C124.367576,68.4857598 127.348909,71.4555374 131.019724,71.449768 C134.690538,71.4439818 137.662242,68.4645746 137.656472,64.7918341 C137.650686,61.1210195 134.671279,58.1493159 130.998538,58.1550853 C127.327724,58.1627974 124.35602,61.1441306 124.36179,64.8149452" id="Fill-5" fill="#334AFF"></path>
                <path d="M92.6535397,64.8657896 C92.6593259,68.5366042 95.640659,71.5083077 99.3114736,71.5025384 C102.982288,71.4967522 105.953992,68.517345 105.948222,64.8446044 C105.942436,61.1737898 102.963029,58.2020863 99.2902884,58.2078557 C95.6194738,58.2136419 92.6477703,61.194975 92.6535397,64.8657896" id="Fill-7" fill="#334AFF"></path>
                <path d="M60.9454823,64.9183674 C60.9512685,68.589182 63.9326017,71.5608855 67.6034162,71.5551161 C71.2742308,71.547404 74.2459344,68.5679968 74.240165,64.8952563 C74.2324529,61.2263676 71.2530457,58.2546641 67.5803051,58.2604334 C63.9094905,58.2662196 60.9397129,61.2475528 60.9454823,64.9183674" id="Fill-9" fill="#334AFF"></path>
                <path d="M93.7746146,92.7088991 C93.7804073,96.3797137 96.7617404,99.3494913 100.432555,99.3437219 C104.10337,99.3379357 107.073147,96.3585285 107.067378,92.685788 C107.061592,89.0149734 104.082184,86.0432698 100.409444,86.0490392 C96.7386293,86.0567513 93.7669258,89.0380845 93.7746146,92.7088991" id="Fill-11" fill="#334AFF"></path>
                <path d="M61.4269638,92.7616694 C61.4327499,96.432484 64.4140831,99.4041876 68.0848977,99.3964988 C71.7557123,99.3907061 74.7274158,96.4112988 74.7197271,92.7385583 C74.7139343,89.0677437 71.7345271,86.0979661 68.0617866,86.1037355 C64.390972,86.1095217 61.4211944,89.0908548 61.4269638,92.7616694" id="Fill-13" fill="#334AFF"></path>
                <line x1="66.0738945" y1="0.96257772" x2="66.0738945" y2="24.7188726" id="Stroke-15" stroke="#0F1031" stroke-width="5.41666667" stroke-linecap="round" stroke-linejoin="round"></line>
                <line x1="142.401994" y1="0.96257772" x2="142.401994" y2="24.7188726" id="Stroke-17" stroke="#0F1031" stroke-width="5.41666667" stroke-linecap="round" stroke-linejoin="round"></line>
                <g id="pro" transform="translate(0.706049, 58.167403)">
                    <path d="M60.7403333,30.2575 C60.7403333,46.9668333 47.1445,60.515 30.3701667,60.515 C13.598,60.515 1.15463195e-13,46.9668333 1.15463195e-13,30.2575 C1.15463195e-13,13.546 13.598,0 30.3701667,0 C47.1445,0 60.7403333,13.546 60.7403333,30.2575" id="Fill-11" fill="#F5C734"></path>
                    <polygon id="Fill-14" fill="#0F1031" points="28.6204906 32.4598884 15.9257222 32.096084 44.727061 5.48753854 32.1198427 29.2659 44.8146111 29.6297043 17.7961113 58.4505015"></polygon>
                </g>
            </g>
        </g>
    </g>
</svg>