<?xml version="1.0" encoding="UTF-8"?>
<svg width="162px" height="124px" viewBox="0 0 162 124" version="1.1" xmlns="http://www.w3.org/2000/svg" xmlns:xlink="http://www.w3.org/1999/xlink">
    <!-- Generator: Sketch 61 (89581) - https://sketch.com -->
    <title>ET icon</title>
    <desc>Created with Sketch.</desc>
    <g id="00.Brand-Assets" stroke="none" stroke-width="1" fill="none" fill-rule="evenodd">
        <g id="Artboard" transform="translate(-610.000000, -707.000000)">
            <g id="ET-icon" transform="translate(613.000000, 710.000000)">
                <path d="M100.126962,26.442577 L76.6572266,49 L61.3796394,34.6875 L50.4543457,39.2963867 L36.918457,30.3295898 L40.0563965,15.2824707 L23.552002,1.11987305 L8.43261025,22.3757324 L0.125774417,43.3498535 L0.125774417,54.9260254 L8.43261025,70 L52.5231373,106.349609 L79.5,117.998774 L100.126962,117.998774 L135.623435,101.345703 L156.181327,78.4313725 L141.34375,64.0896359 C134.664063,68.0298786 131.324219,70 131.324219,70 C131.324219,70 126.318919,69.8225957 116.308319,69.4677871 L109.74164,58.7114846 L110.914533,44.4902344 L100.126962,26.442577 Z" id="Path-4" fill="#FFFFFF"></path>
                <path d="M115.328026,112.492997 C127.139316,107.617735 149.33952,91.5666764 158.103641,78.4313725 C158.103641,78.4313725 152.20551,73.1816654 140.409246,62.682251 C137.339258,66.5834155 132.538563,69.0960006 127.139316,69.0960006 C117.869674,69.0960006 110.353558,61.6913967 110.353558,52.5592825 C110.353558,47.9923607 115.270102,40.8644352 115.270102,40.8644352 L100.255423,26.442577 C96.2278389,32.314396 87.9183385,41.9520759 77.3070413,49.7203723 C72.421429,53.2970213 67.0478749,56.4773927 61.3796394,58.7114846" id="Fill-1" fill="#3D54FF"></path>
                <path d="M69.8609614,42.3009857 C67.9460439,40.534437 65.0736677,37.8846138 61.2438327,34.3515163 C58.7097696,37.1521672 55.0558029,38.9095408 50.9933397,38.9095408 C43.335761,38.9095408 37.1286911,32.6620689 37.1286911,24.9567955 C37.1286911,21.3061958 38.5238106,17.9812936 40.8068906,15.4958901 L24.0100679,0 C8.94762443,16.6384442 0.56652223,34.370675 0.137254707,49.7237458 C-0.114818787,58.7031338 3.82862914,65.1604633 7.58984375,68.3308105" id="Path" stroke="#0F1031" stroke-width="5.04201681" stroke-linecap="round" stroke-linejoin="round"></path>
                <path d="M7.58984375,68.3308105 C7.58984375,68.3308105 44.2455097,100.316073 57.0496939,108.925141 C69.853878,117.53421 80.6833418,118.918215 94.733177,117.53421 C108.783012,116.150204 142.166966,99.3905942 155.862745,78.2353708 L140.388644,63.8412463 C137.314913,67.8671755 132.510121,70.4601166 127.104291,70.4601166 C117.821588,70.4601166 110.296306,62.8187032 110.296306,53.3945312 C110.296306,48.6815529 112.178505,44.4147104 115.218846,41.3256663 C115.373499,41.1686265 115.533424,41.0169404 115.69335,40.8670387 L100.185857,26.442577 C94.2984937,35.2921262 85.0766235,43.208379 76.7692895,49.7237458 C66.5095227,58.1969778 55.8200688,64.3993327 44.7009277,68.3308105 C28.0222161,74.2280273 12.9733887,71.8752441 7.58984375,68.3308105 Z" id="Stroke-3" stroke="#0F1031" stroke-width="5.04201681" stroke-linecap="round" stroke-linejoin="round"></path>
                <path d="M117.73384,89.1291891 C115.716784,91.3142695 115.857378,94.716191 118.046896,96.7293061 C120.238288,98.7424212 123.651911,98.600363 125.668966,96.4152826 C127.687896,94.2302022 127.547302,90.8282807 125.35591,88.8170348 C123.164518,86.8057889 119.75277,86.9441087 117.73384,89.1291891" id="Fill-7" fill="#FFFFFF"></path>
                <path d="M101.553239,74.7883437 C99.5342856,76.9732745 99.6767558,80.3749631 101.866298,82.3860714 C104.057715,84.4009177 107.471377,84.2588692 109.488455,82.0739384 C111.507408,79.8890076 111.364938,76.4873189 109.173521,74.4743416 C106.982104,72.4632334 103.570317,72.6034129 101.553239,74.7883437" id="Fill-9" fill="#FFFFFF"></path>
                <path d="M85.3711274,60.4468644 C83.3540719,62.6321193 83.4946659,66.0343126 85.6841835,68.0457191 C87.8755756,70.0589951 91.2891983,69.9169254 93.3062538,67.7316705 C95.3251839,65.548285 95.1845899,62.1442223 92.9931978,60.1328158 C90.8018057,58.1214092 87.3900575,58.2616094 85.3711274,60.4468644" id="Fill-11" fill="#FFFFFF"></path>
            </g>
        </g>
    </g>
</svg>