<svg xmlns="http://www.w3.org/2000/svg" width="52" height="42" fill="none" viewBox="0 0 52 42"><g clip-path="url(#clip0_5106_105)"><path fill="#334AFF" fill-rule="evenodd" d="m19.488 23.802-12.714-12.3S-2.518 22.24 1.842 27.896c0 0 2.466 3.955 12.696 2.116l4.95-6.21Z" clip-rule="evenodd"/><path stroke="#0F1031" stroke-linejoin="round" stroke-width="1.2" d="M3.89 29.475 14.469 38.6c1.65 1.318 3.63 2.22 5.731 2.533 11.515 1.7 21.745-7.79 21.745-7.79L29.613 21.39C24.54 28.538 7.955 33.812 2.275 28.347c-5.384-5.152 4.533-16.845 4.533-16.845h-.034l12.713 12.317s-1.65 1.527-4.95 6.21"/><path fill="#334AFF" fill-rule="evenodd" d="m37.481 11.988-4.95 6.21L45.21 30.515S55.787 18.58 49.153 13.15c0 0-2.623-2.897-11.654-1.145l-.018-.017Z" clip-rule="evenodd"/><path stroke="#0F1031" stroke-linecap="round" stroke-linejoin="round" stroke-width="1.2" d="M37.48 11.988c-3.3 4.666-4.95 6.21-4.95 6.21l12.662 12.023s9.917-11.416 4.568-16.568c-5.68-5.465-22.266-.19-27.338 6.957l-9.5-9.386"/><path stroke="#0F1031" stroke-linecap="round" stroke-linejoin="round" stroke-width="1.2" d="M48.128 12.525 37.55 3.4C35.9 2.082 33.92 1.18 31.82.867c-11.515-1.7-21.745 7.79-21.745 7.79"/></g><defs><clipPath id="clip0_5106_105"><path fill="#fff" d="M0 0h52v42H0z"/></clipPath></defs></svg>