<?xml version="1.0" encoding="UTF-8"?>
<svg width="139px" height="158px" viewBox="0 0 139 158" version="1.1" xmlns="http://www.w3.org/2000/svg" xmlns:xlink="http://www.w3.org/1999/xlink">
    <!-- Generator: Sketch 61 (89581) - https://sketch.com -->
    <title>EC icon</title>
    <desc>Created with Sketch.</desc>
    <g id="00.Brand-Assets" stroke="none" stroke-width="1" fill="none" fill-rule="evenodd">
        <g id="Artboard" transform="translate(-142.000000, -342.000000)">
            <g id="EC-icon" transform="translate(215.500000, 416.000000) rotate(-20.000000) translate(-215.500000, -416.000000) translate(153.000000, 351.000000)">
                <polygon id="Path-2" fill="#FFFFFF" points="58.5138172 12.1813396 14.67673 13.4930653 5.91864276 18.0561971 2.67162777 25.11621 2.02842814 59.7181703 2.46726616 128.57812 23.052794 129.18134 51.0697268 129.092744 65.9234354 129.052408 73.378393 128.224123 93.3787816 122.213171 105.772394 113.695921 114.868942 99.9781465 118.290727 90.5964223 121.943706 77.2321265 122.028428 45.9495838 121.539391 22.1653851 113.01974 13.1539355 88.490046 12.5839293"></polygon>
                <path d="M124.288634,41.5905734 L123.605698,28.1852983 C123.751468,19.6001841 116.823534,12.5667583 108.23842,12.579995 L17.083917,12.7317091 C8.66950768,12.7432173 1.83363923,19.534971 1.76650809,27.9532164 L2.69905558,40.6998861 L124.288634,41.5905734 Z" id="fill-2" fill="#3D54FF"></path>
                <path d="M66.56916,129.351932 C97.7026663,129.302063 122.899862,104.020474 122.849993,72.8869678 L123.605698,28.1852983 C123.751468,19.6001841 116.823534,12.5667583 108.23842,12.5801081 L17.083917,12.7317091 C8.66950768,12.7432173 1.83363923,19.534971 1.76650809,27.9532164 L0.978272243,127.038769 C0.967739022,128.362852 2.03258186,129.444773 3.35666528,129.455306 C3.36433081,129.455367 3.37199659,129.455391 3.37966236,129.455379 C16.3181407,129.434197 29.2566191,129.413016 42.1950974,129.391834" id="Path" stroke="#0F1031" stroke-width="5.39446721" stroke-linecap="round" stroke-linejoin="round"></path>
                <path d="M43.0078548,129.264661 C65.8209354,125.378727 82.3716394,94.8609091 85.402131,96.1555812 C103.245589,103.783597 117.050876,99.6353298 120.22522,89.9435107" id="Stroke-3" stroke="#0F1031" stroke-width="5.39446721" stroke-linecap="round" stroke-linejoin="round"></path>
                <path d="M87.8889954,64.5493102 C87.8947579,68.2050804 90.8638725,71.1626868 94.5196427,71.1569411 C98.175413,71.1511786 101.134937,68.1839821 101.129192,64.5262938 C101.123429,60.8705235 98.1562327,57.9109991 94.4985444,57.9167448 C90.8427741,57.9244253 87.8832497,60.8935399 87.8889954,64.5493102" id="Fill-5" fill="#334AFF"></path>
                <path d="M56.3106973,64.5999462 C56.3164598,68.2557165 59.2855744,71.2152409 62.9413446,71.2094952 C66.5971149,71.2037327 69.5566393,68.2365362 69.5508936,64.5788479 C69.5451311,60.9230776 66.5779346,57.9635532 62.9202463,57.9692989 C59.264476,57.9750614 56.3049516,60.9441759 56.3106973,64.5999462" id="Fill-7" fill="#334AFF"></path>
                <path d="M24.732591,64.6523085 C24.7383535,68.3080788 27.707468,71.2676032 31.3632383,71.2618575 C35.0190086,71.254177 37.978533,68.2869804 37.9727873,64.6292921 C37.9651068,60.9754399 34.9979102,58.0159155 31.3402219,58.0216612 C27.6844516,58.0274237 24.7268453,60.9965382 24.732591,64.6523085" id="Fill-9" fill="#334AFF"></path>
                <path d="M57.4271776,92.3289446 C57.4329466,95.9847148 60.4020612,98.9423212 64.0578314,98.9365755 C67.7136017,98.930813 70.6712081,95.9636165 70.6654624,92.3059282 C70.6596999,88.6501579 67.6925034,85.6906335 64.0348151,85.6963792 C60.3790448,85.7040597 57.4195204,88.6731743 57.4271776,92.3289446" id="Fill-11" fill="#334AFF"></path>
                <path d="M25.2120991,92.3814987 C25.2178616,96.0372689 28.1869762,98.9967933 31.8427465,98.9891361 C35.4985168,98.9833671 38.4580412,96.0161706 38.4503839,92.3584823 C38.4446149,88.702712 35.4774184,85.7451056 31.8197301,85.7508513 C28.1639598,85.7566138 25.2063534,88.7257284 25.2120991,92.3814987" id="Fill-13" fill="#334AFF"></path>
                <line x1="29.8399851" y1="0.95863273" x2="29.8399851" y2="24.6175657" id="Stroke-15" stroke="#0F1031" stroke-width="5.39446721" stroke-linecap="round" stroke-linejoin="round"></line>
                <line x1="94.8265763" y1="0.95863273" x2="94.8265763" y2="24.6175657" id="Stroke-17" stroke="#0F1031" stroke-width="5.39446721" stroke-linecap="round" stroke-linejoin="round"></line>
            </g>
        </g>
    </g>
</svg>